<svg id="visual" viewBox="0 0 900 600" width="900" height="600" xmlns="http://www.w3.org/2000/svg" xmlns:xlink="http://www.w3.org/1999/xlink" version="1.1"><rect width="900" height="600" fill="#ffffff"></rect><g><g transform="translate(148 409)"><path d="M85.5 -26.4C98.8 13.2 89.3 61.5 60 82.9C30.7 104.3 -18.5 98.7 -55.1 72.8C-91.7 47 -115.7 0.8 -104.4 -36.1C-93.2 -72.9 -46.6 -100.4 -5.2 -98.7C36.1 -97 72.2 -66.1 85.5 -26.4Z" fill="none" stroke="#2a7fff" stroke-width="20"></path></g><g transform="translate(791 313)"><path d="M77.5 -21.6C88.9 10 78.8 52.2 52.6 70.9C26.4 89.5 -15.8 84.6 -43.8 63.5C-71.9 42.4 -85.8 5 -76.1 -24.2C-66.5 -53.4 -33.2 -74.4 -0.1 -74.4C33 -74.4 66.1 -53.3 77.5 -21.6Z" fill="none" stroke="#2a7fff" stroke-width="20"></path></g><g transform="translate(164 23)"><path d="M71.4 -24.7C80.4 4.6 67.3 39.6 43 56.7C18.6 73.8 -17 73.1 -39.9 56.1C-62.9 39.2 -73.2 6 -64.4 -22.9C-55.7 -51.7 -27.8 -76.4 1.7 -76.9C31.2 -77.5 62.4 -53.9 71.4 -24.7Z" fill="none" stroke="#2a7fff" stroke-width="20"></path></g></g></svg>